<svg width="171" height="51" viewBox="0 0 171 51" fill="none" xmlns="http://www.w3.org/2000/svg">
<rect width="25" height="25" transform="matrix(0.866025 0.5 -0.866025 0.5 21.6504 0)" fill="#2337B4"/>
<rect width="2.5" height="5" transform="matrix(0.866025 0.5 -2.20305e-08 1 19.4883 23.7559)" fill="#FF9607"/>
<rect width="2.5" height="5" transform="matrix(0.866025 0.5 -2.20305e-08 1 19.4883 16.2559)" fill="#FF9607"/>
<rect width="2.5" height="2.5" transform="matrix(0.866025 0.5 -2.20305e-08 1 21.6533 12.5059)" fill="#FF9607"/>
<rect width="2.52179" height="7.5" transform="matrix(0.866025 0.5 -2.20305e-08 1 12.9932 10.0059)" fill="#FF9607"/>
<rect width="2.5" height="2.5" transform="matrix(0.866025 0.5 -2.20305e-08 1 15.1523 6.25586)" fill="#FF9607"/>
<rect width="2.5" height="7.5" transform="matrix(0.866025 0.5 -2.20305e-08 1 23.8184 3.75586)" fill="#FF9607"/>
<rect width="2.5" height="2.5" transform="matrix(0.866025 0.5 -0.866025 0.5 21.6533 22.5059)" fill="#FFD5BE"/>
<rect width="2.5" height="2.5" transform="matrix(0.866025 0.5 -0.866025 0.5 23.8184 21.2559)" fill="#FFD5BE"/>
<rect width="2.5" height="2.5" transform="matrix(0.866025 0.5 -0.866025 0.5 21.6533 15.0059)" fill="#FFD5BE"/>
<rect width="2.5" height="2.5" transform="matrix(0.866025 0.5 -0.866025 0.5 23.8184 11.2559)" fill="#FFD5BE"/>
<rect width="2.5" height="2.5" transform="matrix(0.866025 0.5 -0.866025 0.5 15.1523 8.75586)" fill="#FFD5BE"/>
<rect width="2.52886" height="12.5" transform="matrix(0.866025 0.5 -0.866025 0.5 25.9834 0.00585938)" fill="#FFD5BE"/>
<rect width="2.5" height="2.5" transform="matrix(0.866025 0.5 -0.866025 0.5 28.1484 1.25586)" fill="#FFD5BE"/>
<path fill-rule="evenodd" clip-rule="evenodd" d="M23.8126 3.75001L21.6475 5.00001L21.6475 5.00002L19.4825 6.25001L19.4825 8.75001L21.6475 7.50001L21.6475 7.49999L23.8126 6.25001L23.8126 3.75001ZM19.4825 6.25001L17.3174 7.50001L17.3174 10L15.1523 11.25L15.1523 18.75L19.4825 16.25L19.4825 8.75001L19.4825 8.75001L19.4825 6.25001ZM28.1427 6.25001L28.1427 8.75001L28.1427 11.25L28.1427 13.75L25.9777 15L25.9777 12.5L25.9777 10L25.9777 7.50001L25.9777 5.00001L25.9777 2.50001L28.1427 1.25001L28.1427 3.75001L28.1427 6.25001ZM21.6475 17.5L23.8126 16.25L23.8126 18.75L23.8126 21.25L21.6475 22.5L21.6475 20L21.6475 17.5ZM21.6475 27.5L21.6475 30L23.8126 28.75L23.8126 26.25L23.8126 23.75L21.6475 25L21.6475 27.5ZM25.9777 12.5L23.8126 13.75L23.8126 16.25L23.8126 18.75L23.8126 21.25L25.9777 20L25.9777 17.5L25.9777 15L25.9777 12.5ZM30.3078 10L30.3078 7.50001L30.3078 5.00001L30.3078 2.50001L28.1427 3.75001L28.1427 6.25001L28.1427 8.75001L28.1427 11.25L28.1427 13.75L30.3078 12.5L30.3078 10ZM23.8126 28.75L25.9777 27.5L25.9777 25L25.9777 22.5L23.8126 23.75L23.8126 26.25L23.8126 28.75ZM23.8126 3.75001L25.9777 2.50001L25.9777 5.00001L23.8126 6.25001L23.8126 3.75001Z" fill="#FF5900"/>
<rect width="25" height="25" transform="matrix(0.866025 -0.5 2.10831e-08 1 21.6504 25)" fill="#0057FF"/>
<rect width="25" height="25" transform="matrix(0.866025 0.5 -3.64905e-08 1 0 12.5059)" fill="#367BFF"/>
<path d="M71.5491 15.8305H68.0732L61.4249 25.8443L54.7491 15.8305H51.3008V34.5891H55.9629L55.9353 25.1271L60.1284 31.6098V31.6374H62.7215V31.6098L66.887 25.1822V34.5891H71.5491V15.8305Z" fill="#0057FF"/>
<path d="M88.8874 21.2098H84.4185V21.9271C83.4254 21.2926 82.2116 20.9064 80.7495 20.9064C77.1357 20.9064 74.1012 23.8857 74.1012 27.8857C74.1012 31.8581 77.1357 34.865 80.7495 34.865C82.2116 34.865 83.4254 34.4788 84.4185 33.8443V34.5891H88.8874V21.2098ZM81.6322 31.196C79.8116 31.196 78.4874 29.734 78.4874 27.8857C78.4874 26.0374 79.8116 24.5478 81.6322 24.5478C82.6253 24.5478 83.5909 24.8512 84.4185 25.8167V29.9547C83.5909 30.9202 82.6253 31.196 81.6322 31.196Z" fill="#0057FF"/>
<path d="M91.0122 29.9822C91.2881 33.5409 94.1294 35.0029 97.6329 35.0029C101.109 35.0029 103.895 33.5684 103.895 30.4788C103.895 28.1064 102.24 26.8926 99.7294 26.4236L97.2191 26.0098C96.1708 25.8167 95.8398 25.4029 95.8398 24.9615C95.8398 24.4374 96.3639 23.996 97.5225 23.996C98.7639 23.996 99.7019 24.465 99.7846 25.4857H103.757C103.564 21.9547 100.336 20.8512 97.495 20.8512C93.9363 20.8512 91.5363 22.5064 91.5363 25.3202C91.5363 27.665 93.1363 28.9615 95.4536 29.3478L98.157 29.8167C99.0398 29.9547 99.4536 30.3133 99.4536 30.7547C99.4536 31.334 98.7363 31.6926 97.5501 31.6926C96.1432 31.6926 95.1777 31.1684 94.9846 30.0098L91.0122 29.9822Z" fill="#0057FF"/>
<path d="M112.653 29.9547L115.853 34.5891H121.205L115.688 26.6719L120.763 21.2098H115.439L110.777 26.2305V15.0029H106.308V34.5891H110.777V31.9684L112.653 29.9547Z" fill="#0057FF"/>
<path d="M136.037 24.934C137.692 24.3547 138.657 22.5616 138.657 20.8236C138.657 17.7616 136.257 15.8305 132.202 15.8305H122.933V34.5891H132.754C136.975 34.5891 139.485 32.4926 139.485 29.3753C139.485 27.3615 138.326 25.4305 136.037 24.934ZM127.595 19.6374H131.485C133.278 19.6374 134.188 20.2719 134.188 21.4581C134.188 22.6719 133.223 23.4719 131.485 23.4719H127.595V19.6374ZM127.595 30.7271V27.0305H132.23C133.94 27.0305 134.906 27.6098 134.906 28.7684C134.906 29.8719 134.051 30.7271 132.147 30.7271H127.595Z" fill="#0057FF"/>
<path d="M148.274 20.9064C144.054 20.9064 141.019 23.8581 141.019 27.8857C141.019 31.9684 144.054 35.0029 148.274 35.0029C152.495 35.0029 155.53 31.9684 155.53 27.8857C155.53 23.8581 152.495 20.9064 148.274 20.9064ZM148.302 31.1409C146.481 31.1409 145.268 29.7064 145.268 27.9133C145.268 26.1753 146.481 24.7684 148.302 24.7684C150.095 24.7684 151.309 26.1753 151.309 27.9133C151.309 29.7064 150.095 31.1409 148.302 31.1409Z" fill="#0057FF"/>
<path d="M166.196 27.9133L170.885 21.2098H165.782L163.271 24.7409L160.789 21.2098H155.685L160.375 27.9133L155.685 34.5891H160.596L163.299 30.7547L165.975 34.5891H170.885L166.196 27.9133Z" fill="#0057FF"/>
</svg>
