<svg width="48" height="49" viewBox="0 0 48 49" fill="none" xmlns="http://www.w3.org/2000/svg">
<g clip-path="url(#clip0_3675:14799)">
<path fill-rule="evenodd" clip-rule="evenodd" d="M23.9152 46.6723C36.3894 46.6723 46.5018 36.5241 46.5018 24.0056C46.5018 11.4872 36.3894 1.33895 23.9152 1.33895C11.441 1.33895 1.32862 11.4872 1.32862 24.0056C1.32862 36.5241 11.441 46.6723 23.9152 46.6723ZM47.8304 24.0056C47.8304 37.2605 37.1232 48.0056 23.9152 48.0056C10.7072 48.0056 0 37.2605 0 24.0056C0 10.7508 10.7072 0.00561523 23.9152 0.00561523C37.1232 0.00561523 47.8304 10.7508 47.8304 24.0056Z" fill="white"/>
<path fill-rule="evenodd" clip-rule="evenodd" d="M38.3498 18.1061V26.0762H14.1419L13.1003 26.0763C14.2027 30.9122 18.5776 34.5245 23.8067 34.5245C28.1298 34.5245 31.869 32.0555 33.6579 28.4673L38.3498 28.4673V35.1621C38.3498 36.7467 37.0492 38.0313 35.4449 38.0313H12.2052C10.6009 38.0313 9.30029 36.7467 9.30029 35.1621V18.1061H38.3498ZM30.8717 28.4673C29.3311 30.692 26.7415 32.1519 23.8067 32.1519C20.8719 32.1519 18.2823 30.692 16.7417 28.4673H30.8717ZM17.6117 20.0189C15.3352 20.0189 13.4519 21.6816 13.1386 23.8446L15.6148 23.8446C15.8871 23.0121 16.6782 22.4099 17.6117 22.4099C18.5452 22.4099 19.3363 23.0121 19.6085 23.8446L22.0847 23.8446C21.7715 21.6816 19.8882 20.0189 17.6117 20.0189ZM30.0384 20.0189C27.7619 20.0189 25.8786 21.6816 25.5654 23.8446L28.0416 23.8446C28.3138 23.0121 29.1049 22.4099 30.0384 22.4099C30.9719 22.4099 31.763 23.0121 32.0353 23.8446L34.5115 23.8446C34.1983 21.6816 32.3149 20.0189 30.0384 20.0189ZM35.4449 9.33893C37.0492 9.33893 38.3498 10.6235 38.3498 12.2082V15.715H9.30029V12.2082C9.30029 10.6235 10.6009 9.33893 12.2052 9.33893H35.4449Z" fill="white"/>
</g>
<defs>
<clipPath id="clip0_3675:14799">
<rect width="47.8304" height="48" fill="white" transform="translate(0 0.00561523)"/>
</clipPath>
</defs>
</svg>
