<svg width="24" height="25" viewBox="0 0 24 25" fill="none" xmlns="http://www.w3.org/2000/svg">
<path d="M2.00195 12.0077C2.00312 16.927 5.58036 21.1157 10.439 21.8867V14.8977H7.90195V12.0077H10.442V9.80766C10.3284 8.7652 10.6845 7.72625 11.4136 6.97259C12.1427 6.21893 13.1693 5.82867 14.215 5.90766C14.9655 5.91978 15.7141 5.98663 16.455 6.10766V8.56666H15.191C14.7558 8.50967 14.3183 8.65338 14.0017 8.95733C13.6851 9.26127 13.5237 9.69255 13.563 10.1297V12.0077H16.334L15.891 14.8987H13.563V21.8867C18.8174 21.0563 22.502 16.2574 21.9475 10.9667C21.3929 5.67603 16.7932 1.74559 11.4808 2.02284C6.16831 2.30009 2.0028 6.68797 2.00195 12.0077Z" fill="#4267B2"/>
</svg>
