<svg width="20" height="21" viewBox="0 0 20 21" fill="none" xmlns="http://www.w3.org/2000/svg">
<path fill-rule="evenodd" clip-rule="evenodd" d="M10.1562 0.62793C10.5877 0.62793 10.9375 0.977707 10.9375 1.40918V2.34668C10.9375 2.77815 10.5877 3.12793 10.1562 3.12793C9.72478 3.12793 9.375 2.77815 9.375 2.34668V1.40918C9.375 0.977707 9.72478 0.62793 10.1562 0.62793ZM10 14.0654C12.2437 14.0654 14.0625 12.2466 14.0625 10.0029C14.0625 7.75927 12.2437 5.94043 10 5.94043C7.75634 5.94043 5.9375 7.75927 5.9375 10.0029C5.9375 12.2466 7.75634 14.0654 10 14.0654ZM10 15.6279C13.1066 15.6279 15.625 13.1095 15.625 10.0029C15.625 6.89633 13.1066 4.37793 10 4.37793C6.8934 4.37793 4.375 6.89633 4.375 10.0029C4.375 13.1095 6.8934 15.6279 10 15.6279ZM10.9375 17.6592C10.9375 17.2277 10.5877 16.8779 10.1562 16.8779C9.72478 16.8779 9.375 17.2277 9.375 17.6592V18.5967C9.375 19.0282 9.72478 19.3779 10.1562 19.3779C10.5877 19.3779 10.9375 19.0282 10.9375 18.5967V17.6592ZM16.5565 3.92623C16.8616 4.23133 16.8616 4.72599 16.5565 5.03109L15.8936 5.694C15.5885 5.9991 15.0939 5.9991 14.7888 5.694C14.4837 5.3889 14.4837 4.89424 14.7888 4.58915L15.4517 3.92623C15.7568 3.62114 16.2514 3.62114 16.5565 3.92623ZM5.44516 16.0352C5.75026 15.7301 5.75026 15.2355 5.44516 14.9304C5.14006 14.6253 4.6454 14.6253 4.3403 14.9304L3.67739 15.5933C3.37229 15.8984 3.37229 16.393 3.67739 16.6981C3.98249 17.0032 4.47715 17.0032 4.78225 16.6981L5.44516 16.0352ZM19.375 10.7842C19.375 11.2157 19.0252 11.5654 18.5938 11.5654H17.6562C17.2248 11.5654 16.875 11.2157 16.875 10.7842C16.875 10.3527 17.2248 10.0029 17.6562 10.0029H18.5938C19.0252 10.0029 19.375 10.3527 19.375 10.7842ZM2.34375 11.5654C2.77522 11.5654 3.125 11.2157 3.125 10.7842C3.125 10.3527 2.77522 10.0029 2.34375 10.0029H1.40625C0.974777 10.0029 0.625 10.3527 0.625 10.7842C0.625 11.2157 0.974777 11.5654 1.40625 11.5654H2.34375ZM16.2153 16.6981C15.9102 17.0032 15.4155 17.0032 15.1104 16.6981L14.4475 16.0352C14.1424 15.7301 14.1424 15.2355 14.4475 14.9304C14.7526 14.6253 15.2473 14.6253 15.5524 14.9304L16.2153 15.5933C16.5204 15.8984 16.5204 16.393 16.2153 16.6981ZM3.86045 5.69397C4.16555 5.99907 4.66021 5.99907 4.9653 5.69397C5.2704 5.38888 5.2704 4.89422 4.9653 4.58912L4.30239 3.92621C3.99729 3.62111 3.50263 3.62111 3.19754 3.92621C2.89244 4.2313 2.89244 4.72596 3.19754 5.03106L3.86045 5.69397Z" fill="white"/>
</svg>
