<svg width="24" height="24" viewBox="0 0 24 24" fill="none" xmlns="http://www.w3.org/2000/svg">
<path fill-rule="evenodd" clip-rule="evenodd" d="M14.4577 15.8719C13.309 16.587 11.9527 17 10.5 17C6.35786 17 3 13.6421 3 9.5C3 5.35786 6.35786 2 10.5 2C14.6421 2 18 5.35786 18 9.5C18 11.4657 17.2438 13.2548 16.0064 14.5922L21.7071 20.2929C22.0976 20.6834 22.0976 21.3166 21.7071 21.7071C21.3166 22.0976 20.6834 22.0976 20.2929 21.7071L14.4577 15.8719ZM16 9.5C16 12.5376 13.5376 15 10.5 15C7.46243 15 5 12.5376 5 9.5C5 6.46243 7.46243 4 10.5 4C13.5376 4 16 6.46243 16 9.5Z" fill="#1E202C"/>
</svg>
