<svg width="48" height="48" viewBox="0 0 48 48" fill="none" xmlns="http://www.w3.org/2000/svg">
<path d="M0 24C0 10.7452 10.7452 0 24 0C37.2548 0 48 10.7452 48 24C48 37.2548 37.2548 48 24 48C10.7452 48 0 37.2548 0 24Z" fill="#B0C1DB"/>
<path opacity="0.4" d="M23.9978 8L23.7793 8.72924V29.8881L23.9978 30.1023L33.9935 24.2967L23.9978 8Z" fill="white"/>
<path opacity="0.8" d="M23.9959 8L14 24.2967L23.9959 30.1023V19.8324V8Z" fill="#F0F2F6"/>
<path opacity="0.4" d="M23.9981 31.9627L23.875 32.1103V39.6474L23.9981 40.0006L34 26.1602L23.9981 31.9627Z" fill="white"/>
<path opacity="0.9" d="M23.9959 40.0006V31.9627L14 26.1602L23.9959 40.0006Z" fill="white"/>
<path opacity="0.1" d="M24.002 30.102L33.9976 24.2964L24.002 19.832V30.102Z" fill="white"/>
<path opacity="0.2" d="M14 24.2964L23.9959 30.102V19.832L14 24.2964Z" fill="white"/>
</svg>
