<svg width="16" height="16" viewBox="0 0 16 16" fill="none" xmlns="http://www.w3.org/2000/svg">
<path opacity="0.2" d="M7.99998 14.6666C11.6819 14.6666 14.6666 11.6818 14.6666 7.99992C14.6666 4.31802 11.6819 1.33325 7.99998 1.33325C4.31808 1.33325 1.33331 4.31802 1.33331 7.99992C1.33331 11.6818 4.31808 14.6666 7.99998 14.6666Z" fill="#FB2047"/>
<path d="M8.66665 5.33317C8.66665 4.96498 8.36817 4.6665 7.99998 4.6665C7.63179 4.6665 7.33331 4.96498 7.33331 5.33317L7.33331 8.6665C7.33331 9.03469 7.63179 9.33317 7.99998 9.33317C8.36817 9.33317 8.66665 9.03469 8.66665 8.6665V5.33317Z" fill="#FB2047"/>
<path d="M8.66665 10.6667C8.66665 10.2985 8.36817 10 7.99998 10C7.63179 10 7.33331 10.2985 7.33331 10.6667C7.33331 11.0349 7.63179 11.3333 7.99998 11.3333C8.36817 11.3333 8.66665 11.0349 8.66665 10.6667Z" fill="#FB2047"/>
</svg>
