<svg width="48" height="48" viewBox="0 0 48 48" fill="none" xmlns="http://www.w3.org/2000/svg">
<path d="M0 24C0 10.7452 10.7452 0 24 0C37.2548 0 48 10.7452 48 24C48 37.2548 37.2548 48 24 48C10.7452 48 0 37.2548 0 24Z" fill="#8247E5"/>
<path d="M31.1292 19.3319C30.6125 19.0275 29.941 19.0275 29.3727 19.3319L25.3432 21.666L22.6052 23.1882L18.5756 25.5222C18.059 25.8266 17.3875 25.8266 16.8192 25.5222L13.6162 23.6956C13.0996 23.3911 12.738 22.833 12.738 22.2241V18.6216C12.738 18.0127 13.048 17.4545 13.6162 17.1501L16.7675 15.3742C17.2841 15.0698 17.9557 15.0698 18.524 15.3742L21.6753 17.1501C22.1919 17.4545 22.5535 18.0127 22.5535 18.6216V20.9556L25.2915 19.3827V17.0486C25.2915 16.4397 24.9815 15.8816 24.4133 15.5772L18.5756 12.2283C18.059 11.9239 17.3875 11.9239 16.8192 12.2283L10.8782 15.5772C10.31 15.8816 10 16.4397 10 17.0486V23.797C10 24.4059 10.31 24.9641 10.8782 25.2685L16.8192 28.6173C17.3358 28.9218 18.0074 28.9218 18.5756 28.6173L22.6052 26.334L25.3432 24.7611L29.3727 22.4778C29.8893 22.1734 30.5609 22.1734 31.1292 22.4778L34.2804 24.2537C34.797 24.5581 35.1587 25.1163 35.1587 25.7252V29.3277C35.1587 29.9366 34.8487 30.4947 34.2804 30.7992L31.1292 32.6258C30.6125 32.9302 29.941 32.9302 29.3727 32.6258L26.2214 30.8499C25.7048 30.5455 25.3432 29.9873 25.3432 29.3784V27.0444L22.6052 28.6173V30.9514C22.6052 31.5603 22.9151 32.1184 23.4834 32.4228L29.4244 35.7717C29.941 36.0761 30.6125 36.0761 31.1808 35.7717L37.1218 32.4228C37.6384 32.1184 38 31.5603 38 30.9514V24.203C38 23.5941 37.69 23.0359 37.1218 22.7315L31.1292 19.3319Z" fill="white"/>
</svg>
