<svg width="17" height="16" viewBox="0 0 17 16" fill="none" xmlns="http://www.w3.org/2000/svg">
<path d="M14.9959 7.99967C14.9959 11.4054 12.235 14.1663 8.82926 14.1663C5.42351 14.1663 2.6626 11.4054 2.6626 7.99967C2.6626 4.59392 5.42351 1.83301 8.82926 1.83301C12.235 1.83301 14.9959 4.59392 14.9959 7.99967Z" fill="#2BC128" stroke="white"/>
<path fill-rule="evenodd" clip-rule="evenodd" d="M11.9444 5.50639C12.2168 5.75406 12.2369 6.17569 11.9892 6.44813L8.6559 10.1148C8.41333 10.3816 8.00255 10.4072 7.72875 10.1725L5.39542 8.17252C5.11586 7.9329 5.08349 7.51204 5.32311 7.23249C5.56272 6.95293 5.98359 6.92056 6.26314 7.16017L8.10486 8.7388L11.0027 5.55123C11.2503 5.27879 11.672 5.25871 11.9444 5.50639Z" fill="white"/>
</svg>
