<svg width="24" height="24" viewBox="0 0 24 24" fill="none" xmlns="http://www.w3.org/2000/svg">
<path opacity="0.3" d="M12 22C17.5228 22 22 17.5228 22 12C22 6.47715 17.5228 2 12 2C6.47715 2 2 6.47715 2 12C2 17.5228 6.47715 22 12 22Z" fill="#FCFCFD"/>
<path fill-rule="evenodd" clip-rule="evenodd" d="M17.7996 8.23966C18.0814 8.5432 18.0639 9.01775 17.7603 9.2996L10.7603 15.7996C10.4647 16.0741 10.0049 16.0656 9.71967 15.7803L6.21967 12.2803C5.92678 11.9874 5.92678 11.5126 6.21967 11.2197C6.51256 10.9268 6.98744 10.9268 7.28033 11.2197L10.2693 14.2086L16.7397 8.20041C17.0432 7.91856 17.5177 7.93613 17.7996 8.23966Z" fill="#FCFCFD"/>
</svg>
