<svg width="36" height="36" viewBox="0 0 36 36" fill="none" xmlns="http://www.w3.org/2000/svg">
<path d="M18 3C9.73319 3 3 9.72499 3 18C3 26.275 9.73319 33 18 33C26.2668 33 33 26.2668 33 18C33 9.73319 26.275 3 18 3ZM18 3.82012C25.8157 3.82012 32.1799 10.1843 32.1799 18C32.1799 21.4199 30.9661 24.561 28.9404 27.0131C28.8338 26.5293 28.7026 26.0946 28.5631 25.7419C28.1941 24.8316 27.4314 23.6916 26.3078 22.3466C25.906 21.871 25.5451 21.4609 25.2745 21.1739C25.5943 20.9934 25.7993 20.6572 25.7993 20.2881V12.7348C25.7993 8.4702 22.3302 4.96829 18.0738 4.91088C18.0492 4.91088 18.0246 4.91088 17.9918 4.91088C16.2367 4.91088 14.5637 5.60798 13.2679 6.88737C11.9229 8.21596 11.152 10.053 11.152 11.9147V20.9934C10.1268 22.076 8.90487 23.6424 8.19136 25.1925C7.84691 25.9388 7.58447 26.6441 7.36304 27.3494C5.16512 24.848 3.82012 21.5839 3.82012 18C3.82012 10.1843 10.1843 3.82012 18 3.82012ZM20.0421 21.3871L20.0257 21.3789C20.0011 21.4117 17.836 24.2493 15.474 23.8885C15.0804 23.8311 14.8015 23.6424 14.6047 23.3308C13.9568 22.2646 14.4653 20.0421 14.7277 19.222C15.0066 19.0005 15.2526 18.7709 15.4494 18.5167C15.8267 18.0246 15.9907 17.5571 16.0645 17.1881C16.4336 17.3275 16.8272 17.4177 17.2455 17.4177H17.5735C18.5577 17.4177 19.4352 16.9749 20.0339 16.2859V21.3871H20.0421ZM20.0421 10.7747V14.1208C20.0421 15.4822 18.9349 16.5812 17.5817 16.5812H17.2537C15.8923 16.5812 14.7933 15.474 14.7933 14.1208V10.3401C14.7933 8.97868 15.9005 7.87972 17.2537 7.87972H17.5817C18.9431 7.87972 20.0421 8.98688 20.0421 10.3401V10.7747ZM20.8622 14.1208V10.7747V10.3401C20.8622 8.52761 19.386 7.0596 17.5817 7.0596H17.2537C15.4412 7.0596 13.9732 8.53581 13.9732 10.3401V14.1208C13.9732 15.2034 14.5063 16.1547 15.31 16.7534C15.3018 16.9913 15.228 17.4669 14.8097 18.0082C14.4571 18.4675 13.8174 18.8939 13.1941 19.3122C12.7676 19.591 12.3494 19.8945 11.9803 20.2061V11.9147C11.9803 10.2663 12.661 8.64243 13.8502 7.46966C15.0066 6.32969 16.4664 5.7146 18.0656 5.731C21.8792 5.78021 24.9792 8.91307 24.9792 12.7348V20.2881C24.9792 20.3701 24.93 20.4522 24.8726 20.4768L21.1985 21.8054C21.0919 21.8464 21.0098 21.7972 20.977 21.7726C20.9442 21.7479 20.8704 21.6905 20.8704 21.5675V14.1208H20.8622ZM10.0202 27.0049C10.3483 28.1531 11.152 29.0962 11.6113 29.5637C11.4062 29.8343 11.2996 30.1624 11.234 30.4576C10.0448 29.8097 8.95407 28.9896 7.99453 28.0383C8.23237 27.2264 8.53581 26.4062 8.93767 25.5287C9.1673 25.0202 9.46255 24.5118 9.7824 24.0279C9.72499 24.9054 9.74139 25.9962 10.0202 27.0049ZM12.4068 29.9245C12.5708 29.8589 13.883 29.3341 15.4576 30.1952C16.3762 30.6955 16.6222 31.6222 16.6796 32.1143C15.0148 31.9584 13.4401 31.5074 11.9967 30.8349C12.0459 30.4904 12.1607 30.0804 12.4068 29.9245ZM17.5161 32.1553C17.4587 31.5566 17.1963 30.2034 15.8595 29.4735C14.2685 28.6042 12.8742 28.9076 12.3084 29.088C11.9475 28.7436 11.1192 27.8496 10.8157 26.7835C10.3401 25.1186 10.7091 23.1093 10.7993 22.6583C11.3652 21.953 11.9229 21.3625 12.3084 21.0016C12.6774 20.6572 13.1695 20.3209 13.6534 20.0011C13.6698 19.9929 13.6862 19.9765 13.7026 19.9683C13.4729 21.059 13.2761 22.7157 13.9158 23.7572C14.2356 24.2903 14.7195 24.602 15.3592 24.7004C15.5478 24.7332 15.7283 24.7414 15.9087 24.7414C17.9262 24.7414 19.6238 23.1011 20.3373 22.2974C20.3866 22.3548 20.444 22.404 20.5014 22.4451C20.6818 22.5763 20.895 22.6419 21.1165 22.6419C21.2395 22.6419 21.3625 22.6173 21.4773 22.5763L24.4625 21.5019C24.6348 21.6823 24.9136 21.9858 25.2417 22.363C24.3805 22.6173 22.9125 23.2652 21.8054 24.8562C20.5014 26.7425 20.1897 30.7775 20.1241 31.9995C19.427 32.1061 18.7217 32.1799 18 32.1799C17.836 32.1799 17.6802 32.1635 17.5161 32.1553ZM20.9524 31.8682C21.0344 30.5232 21.3625 26.9393 22.4779 25.3237C23.6178 23.6752 25.2417 23.1832 25.8239 23.0601C26.7917 24.2411 27.4806 25.2745 27.8004 26.0536C27.9809 26.4964 28.1367 27.0787 28.2515 27.7758C26.316 29.8015 23.79 31.2613 20.9524 31.8682Z" fill="#FCFCFD" stroke="#FCFCFD" stroke-width="0.4"/>
</svg>
