<svg width="48" height="48" viewBox="0 0 48 48" fill="none" xmlns="http://www.w3.org/2000/svg">
<path d="M0 24C0 10.7452 10.7452 0 24 0C37.2548 0 48 10.7452 48 24C48 37.2548 37.2548 48 24 48C10.7452 48 0 37.2548 0 24Z" fill="#F0F2F6"/>
<path fill-rule="evenodd" clip-rule="evenodd" d="M34.632 16.3162C28.7612 10.5613 19.2427 10.5613 13.3719 16.3162L12.5964 17.0764C12.3028 17.3641 12.3028 17.8307 12.5964 18.1184L15.0134 20.4877C15.1602 20.6316 15.3981 20.6316 15.5449 20.4877L16.5862 19.467C20.6818 15.4522 27.3221 15.4522 31.4178 19.467L32.3901 20.4201C32.5369 20.564 32.7748 20.564 32.9216 20.4201L35.3386 18.0508C35.6321 17.7631 35.6321 17.2965 35.3386 17.0088L34.632 16.3162ZM41.7798 23.3251L39.6287 21.2164C39.3352 20.9287 38.8592 20.9287 38.5657 21.2164L31.6815 27.9647C31.6081 28.0366 31.4891 28.0366 31.4157 27.9647L24.5314 21.2163L24.5314 21.2163C24.2378 20.9285 23.7619 20.9285 23.4684 21.2163L16.5844 27.9647C16.511 28.0366 16.392 28.0366 16.3186 27.9647L9.43431 21.2163C9.14077 20.9285 8.66485 20.9285 8.37131 21.2163L6.22016 23.3249C5.92661 23.6127 5.92661 24.0792 6.22016 24.367L15.9201 33.8754C16.2136 34.1631 16.6896 34.1631 16.9831 33.8754L23.8672 27.1271C23.9406 27.0551 24.0596 27.0551 24.1329 27.1271L31.0172 33.8754C31.3107 34.1631 31.7866 34.1631 32.0802 33.8754L41.7798 24.3671C42.0734 24.0793 42.0734 23.6128 41.7798 23.3251Z" fill="#3B99FC"/>
</svg>
