<svg width="48" height="48" viewBox="0 0 48 48" fill="none" xmlns="http://www.w3.org/2000/svg">
<path d="M0 24C0 10.7452 10.7452 0 24 0C37.2548 0 48 10.7452 48 24C48 37.2548 37.2548 48 24 48C10.7452 48 0 37.2548 0 24Z" fill="#F3BA2F"/>
<path fill-rule="evenodd" clip-rule="evenodd" d="M23.9998 15.4226L17.9201 21.5024L17.9202 21.5021L14.3828 17.9646L23.9998 8.34766L33.6199 17.9675L30.0824 21.505L23.9998 15.4226ZM11.8848 20.4621L8.34717 24.0003L11.8845 27.5371L15.4221 23.9995L11.8848 20.4621ZM23.9998 32.5779L17.9201 26.4985L14.3778 30.0309L14.3828 30.0359L23.9998 39.6529L33.6199 30.0332L33.6216 30.0313L30.0823 26.4957L23.9998 32.5779ZM36.115 20.4642L32.5774 24.0018L36.1149 27.5391L39.6524 24.0015L36.115 20.4642ZM27.4762 23.9985H27.475L27.4782 24.0002L27.4765 24.0021L23.9999 27.4786L20.5263 24.0046L20.5215 23.9997L20.5263 23.9949L21.1351 23.386L21.4303 23.0907L23.9999 20.5219L27.4762 23.9985Z" fill="white"/>
</svg>
