<svg width="36" height="36" viewBox="0 0 36 36" fill="none" xmlns="http://www.w3.org/2000/svg">
<path d="M0 18C0 8.05888 8.05888 0 18 0C27.9411 0 36 8.05888 36 18C36 27.9411 27.9411 36 18 36C8.05888 36 0 27.9411 0 18Z" fill="white"/>
<path fill-rule="evenodd" clip-rule="evenodd" d="M13.1714 26.4585L16.1291 27.2439V26.2168L16.3706 25.9751H18.0607V27.1835V28.0294H16.2499L14.0165 27.0626L13.1714 26.4585Z" fill="#CDBDB2"/>
<path fill-rule="evenodd" clip-rule="evenodd" d="M22.8293 26.4585L19.932 27.2439V26.2168L19.6905 25.9751H18.0004V27.1835V28.0294H19.8112L22.0446 27.0626L22.8293 26.4585Z" fill="#CDBDB2"/>
<path fill-rule="evenodd" clip-rule="evenodd" d="M16.3704 24.2233L16.1289 26.2171L16.4307 25.9755H19.5696L19.9317 26.2171L19.6903 24.2233L19.2074 23.9212L16.7929 23.9816L16.3704 24.2233Z" fill="#393939"/>
<path fill-rule="evenodd" clip-rule="evenodd" d="M14.7405 10.7499L16.1892 14.1334L16.8532 23.9818H19.2073L19.9316 14.1334L21.2596 10.7499H14.7405Z" fill="#F89C35"/>
<path fill-rule="evenodd" clip-rule="evenodd" d="M8.40255 18.1811L6.7124 23.075L10.9378 22.8333H13.6541V20.7187L13.5333 16.3685L12.9297 16.8518L8.40255 18.1811Z" fill="#F89D35"/>
<path fill-rule="evenodd" clip-rule="evenodd" d="M11.6018 18.7249L16.5515 18.8458L16.0083 21.3834L13.6541 20.7792L11.6018 18.7249Z" fill="#D87C30"/>
<path fill-rule="evenodd" clip-rule="evenodd" d="M11.6018 18.7859L13.6541 20.7193V22.6527L11.6018 18.7859Z" fill="#EA8D3A"/>
<path fill-rule="evenodd" clip-rule="evenodd" d="M13.6541 20.78L16.0686 21.3842L16.8533 23.9822L16.31 24.2843L13.6541 22.7134V20.78Z" fill="#F89D35"/>
<path fill-rule="evenodd" clip-rule="evenodd" d="M13.6543 22.713L13.1714 26.459L16.3706 24.2235L13.6543 22.713Z" fill="#EB8F35"/>
<path fill-rule="evenodd" clip-rule="evenodd" d="M16.5514 18.8458L16.8532 23.9814L15.9478 21.3532L16.5514 18.8458Z" fill="#EA8E3A"/>
<path fill-rule="evenodd" clip-rule="evenodd" d="M10.8774 22.7734L13.6541 22.713L13.1712 26.459L10.8774 22.7734Z" fill="#D87C30"/>
<path fill-rule="evenodd" clip-rule="evenodd" d="M8.04037 28.0897L13.1712 26.4584L10.8774 22.7728L6.7124 23.0749L8.04037 28.0897Z" fill="#EB8F35"/>
<path fill-rule="evenodd" clip-rule="evenodd" d="M16.1893 14.1339L13.5938 16.309L11.6018 18.7258L16.5515 18.907L16.1893 14.1339Z" fill="#E8821E"/>
<path fill-rule="evenodd" clip-rule="evenodd" d="M13.1714 26.4593L16.3706 24.2238L16.1291 26.1572V27.2447L13.9561 26.8218L13.1714 26.4593Z" fill="#DFCEC3"/>
<path fill-rule="evenodd" clip-rule="evenodd" d="M22.8293 26.4593L19.6905 24.2238L19.932 26.1572V27.2447L22.105 26.8218L22.8293 26.4593Z" fill="#DFCEC3"/>
<path fill-rule="evenodd" clip-rule="evenodd" d="M15.2235 19.9331L15.8875 21.3228L13.5333 20.7186L15.2235 19.9331Z" fill="#393939"/>
<path fill-rule="evenodd" clip-rule="evenodd" d="M7.97998 7.91016L16.1893 14.1334L14.8009 10.7499L7.97998 7.91016Z" fill="#E88F35"/>
<path fill-rule="evenodd" clip-rule="evenodd" d="M7.97983 7.91016L6.89331 11.2332L7.49693 14.8584L7.0744 15.1001L7.67802 15.6438L7.19512 16.0668L7.85911 16.671L7.43657 17.0335L8.40237 18.2419L12.9295 16.8522C15.1428 15.0799 16.2294 14.1736 16.1891 14.1333C16.1489 14.0931 13.4124 12.0187 7.97983 7.91016Z" fill="#8E5A30"/>
<path fill-rule="evenodd" clip-rule="evenodd" d="M27.5977 18.1811L29.2878 23.075L25.0625 22.8333H22.3462V20.7187L22.4669 16.3685L23.0705 16.8518L27.5977 18.1811Z" fill="#F89D35"/>
<path fill-rule="evenodd" clip-rule="evenodd" d="M24.3984 18.7249L19.4487 18.8458L19.992 21.3834L22.3461 20.7792L24.3984 18.7249Z" fill="#D87C30"/>
<path fill-rule="evenodd" clip-rule="evenodd" d="M24.3984 18.7859L22.3461 20.7193V22.6527L24.3984 18.7859Z" fill="#EA8D3A"/>
<path fill-rule="evenodd" clip-rule="evenodd" d="M22.3462 20.78L19.9317 21.3842L19.147 23.9822L19.6903 24.2843L22.3462 22.7134V20.78Z" fill="#F89D35"/>
<path fill-rule="evenodd" clip-rule="evenodd" d="M22.346 22.713L22.8289 26.459L19.69 24.2839L22.346 22.713Z" fill="#EB8F35"/>
<path fill-rule="evenodd" clip-rule="evenodd" d="M19.4489 18.8458L19.1471 23.9814L20.0525 21.3532L19.4489 18.8458Z" fill="#EA8E3A"/>
<path fill-rule="evenodd" clip-rule="evenodd" d="M25.1228 22.7734L22.3461 22.713L22.829 26.459L25.1228 22.7734Z" fill="#D87C30"/>
<path fill-rule="evenodd" clip-rule="evenodd" d="M27.9599 28.0897L22.8291 26.4584L25.1228 22.7728L29.2878 23.0749L27.9599 28.0897Z" fill="#EB8F35"/>
<path fill-rule="evenodd" clip-rule="evenodd" d="M19.8109 14.1339L22.4065 16.309L24.3984 18.7258L19.4487 18.907L19.8109 14.1339Z" fill="#E8821E"/>
<path fill-rule="evenodd" clip-rule="evenodd" d="M20.7768 19.9331L20.1128 21.3228L22.4669 20.7186L20.7768 19.9331Z" fill="#393939"/>
<path fill-rule="evenodd" clip-rule="evenodd" d="M28.0203 7.91016L19.811 14.1334L21.1993 10.7499L28.0203 7.91016Z" fill="#E88F35"/>
<path fill-rule="evenodd" clip-rule="evenodd" d="M28.0202 7.91016L29.1067 11.2332L28.5031 14.8584L28.9256 15.1001L28.322 15.6438L28.8049 16.0668L28.1409 16.671L28.5634 17.0335L27.5976 18.2419L23.0705 16.8522C20.8572 15.0799 19.7707 14.1736 19.8109 14.1333C19.8511 14.0931 22.5876 12.0187 28.0202 7.91016Z" fill="#8E5A30"/>
</svg>
