<svg width="48" height="48" viewBox="0 0 48 48" fill="none" xmlns="http://www.w3.org/2000/svg">
<path d="M0 24C0 10.7452 10.7452 0 24 0C37.2548 0 48 10.7452 48 24C48 37.2548 37.2548 48 24 48C10.7452 48 0 37.2548 0 24Z" fill="#F0F2F6"/>
<path fill-rule="evenodd" clip-rule="evenodd" d="M17.5615 35.2783L21.5052 36.3255V34.956L21.8271 34.6338H24.0807V36.245V37.3728H21.6662L18.6883 36.0839L17.5615 35.2783Z" fill="#CDBDB2"/>
<path fill-rule="evenodd" clip-rule="evenodd" d="M30.439 35.2783L26.5758 36.3255V34.956L26.2538 34.6338H24.0003V36.245V37.3728H26.4148L29.3927 36.0839L30.439 35.2783Z" fill="#F0F2F6"/>
<path fill-rule="evenodd" clip-rule="evenodd" d="M21.8273 32.2973L21.5054 34.9558L21.9078 34.6335H26.0929L26.5758 34.9558L26.2539 32.2973L25.61 31.8945L22.3907 31.9751L21.8273 32.2973Z" fill="#393939"/>
<path fill-rule="evenodd" clip-rule="evenodd" d="M19.6538 14.333L21.5854 18.8443L22.4707 31.9754H25.6096L26.5754 18.8443L28.346 14.333H19.6538Z" fill="#F89C35"/>
<path fill-rule="evenodd" clip-rule="evenodd" d="M11.2032 24.241L8.94971 30.7663L14.5835 30.444H18.2053V27.6245L18.0443 21.8242L17.2395 22.4687L11.2032 24.241Z" fill="#F89D35"/>
<path fill-rule="evenodd" clip-rule="evenodd" d="M15.4688 24.9668L22.0684 25.1279L21.344 28.5114L18.2052 27.7058L15.4688 24.9668Z" fill="#D87C30"/>
<path fill-rule="evenodd" clip-rule="evenodd" d="M15.4688 25.0479L18.2052 27.6257V30.2036L15.4688 25.0479Z" fill="#EA8D3A"/>
<path fill-rule="evenodd" clip-rule="evenodd" d="M18.2051 27.707L21.4244 28.5126L22.4707 31.9767L21.7463 32.3795L18.2051 30.2849V27.707Z" fill="#F89D35"/>
<path fill-rule="evenodd" clip-rule="evenodd" d="M18.2054 30.2842L17.5615 35.2788L21.8271 32.2982L18.2054 30.2842Z" fill="#EB8F35"/>
<path fill-rule="evenodd" clip-rule="evenodd" d="M22.0685 25.1279L22.4709 31.9755L21.2637 28.4711L22.0685 25.1279Z" fill="#EA8E3A"/>
<path fill-rule="evenodd" clip-rule="evenodd" d="M14.5029 30.3647L18.2052 30.2842L17.5613 35.2788L14.5029 30.3647Z" fill="#D87C30"/>
<path fill-rule="evenodd" clip-rule="evenodd" d="M10.7203 37.4535L17.5614 35.2784L14.503 30.3643L8.94971 30.7671L10.7203 37.4535Z" fill="#EB8F35"/>
<path fill-rule="evenodd" clip-rule="evenodd" d="M21.5855 18.8457L18.1247 21.7458L15.4688 24.9682L22.0684 25.2099L21.5855 18.8457Z" fill="#E8821E"/>
<path fill-rule="evenodd" clip-rule="evenodd" d="M17.5615 35.2795L21.8271 32.2988L21.5052 34.8767V36.3268L18.6078 35.7629L17.5615 35.2795Z" fill="#DFCEC3"/>
<path fill-rule="evenodd" clip-rule="evenodd" d="M30.439 35.2795L26.2539 32.2988L26.5758 34.8767V36.3268L29.4732 35.7629L30.439 35.2795Z" fill="#DFCEC3"/>
<path fill-rule="evenodd" clip-rule="evenodd" d="M20.2978 26.5771L21.1831 28.43L18.0443 27.6244L20.2978 26.5771Z" fill="#393939"/>
<path fill-rule="evenodd" clip-rule="evenodd" d="M10.6401 10.5469L21.5858 18.8445L19.7347 14.3332L10.6401 10.5469Z" fill="#E88F35"/>
<path fill-rule="evenodd" clip-rule="evenodd" d="M10.6396 10.5469L9.19092 14.9776L9.99575 19.8112L9.43237 20.1334L10.2372 20.8584L9.59333 21.4223L10.4786 22.2279L9.91527 22.7113L11.203 24.3225L17.2392 22.4696C20.1903 20.1066 21.639 18.8982 21.5853 18.8445C21.5317 18.7908 17.8831 16.0249 10.6396 10.5469Z" fill="#8E5A30"/>
<path fill-rule="evenodd" clip-rule="evenodd" d="M36.7968 24.241L39.0503 30.7663L33.4165 30.444H29.7947V27.6245L29.9557 21.8242L30.7605 22.4687L36.7968 24.241Z" fill="#F89D35"/>
<path fill-rule="evenodd" clip-rule="evenodd" d="M32.5312 24.9668L25.9316 25.1279L26.656 28.5114L29.7948 27.7058L32.5312 24.9668Z" fill="#D87C30"/>
<path fill-rule="evenodd" clip-rule="evenodd" d="M32.5312 25.0479L29.7948 27.6257V30.2036L32.5312 25.0479Z" fill="#EA8D3A"/>
<path fill-rule="evenodd" clip-rule="evenodd" d="M29.7949 27.707L26.5756 28.5126L25.5293 31.9767L26.2537 32.3795L29.7949 30.2849V27.707Z" fill="#F89D35"/>
<path fill-rule="evenodd" clip-rule="evenodd" d="M29.7946 30.2842L30.4385 35.2788L26.2534 32.3787L29.7946 30.2842Z" fill="#EB8F35"/>
<path fill-rule="evenodd" clip-rule="evenodd" d="M25.9315 25.1279L25.5291 31.9755L26.7363 28.4711L25.9315 25.1279Z" fill="#EA8E3A"/>
<path fill-rule="evenodd" clip-rule="evenodd" d="M33.4971 30.3647L29.7948 30.2842L30.4387 35.2788L33.4971 30.3647Z" fill="#D87C30"/>
<path fill-rule="evenodd" clip-rule="evenodd" d="M37.2797 37.4535L30.4386 35.2784L33.4969 30.3643L39.0503 30.7671L37.2797 37.4535Z" fill="#EB8F35"/>
<path fill-rule="evenodd" clip-rule="evenodd" d="M26.4145 18.8457L29.8753 21.7458L32.5312 24.9682L25.9316 25.2099L26.4145 18.8457Z" fill="#E8821E"/>
<path fill-rule="evenodd" clip-rule="evenodd" d="M27.7022 26.5771L26.8169 28.43L29.9558 27.6244L27.7022 26.5771Z" fill="#393939"/>
<path fill-rule="evenodd" clip-rule="evenodd" d="M37.3599 10.5469L26.4142 18.8445L28.2653 14.3332L37.3599 10.5469Z" fill="#E88F35"/>
<path fill-rule="evenodd" clip-rule="evenodd" d="M37.3599 10.5469L38.8086 14.9776L38.0038 19.8112L38.5671 20.1334L37.7623 20.8584L38.4062 21.4223L37.5209 22.2279L38.0842 22.7113L36.7965 24.3225L30.7603 22.4696C27.8092 20.1066 26.3605 18.8982 26.4142 18.8445C26.4679 18.7908 30.1164 16.0249 37.3599 10.5469Z" fill="#8E5A30"/>
</svg>
