<svg width="25" height="25" viewBox="0 0 25 25" fill="none" xmlns="http://www.w3.org/2000/svg">
<path d="M11.5 5.50562C11.5 4.95333 11.9477 4.50562 12.5 4.50562C13.0523 4.50562 13.5 4.95333 13.5 5.50562V11.5056H19.5C20.0523 11.5056 20.5 11.9533 20.5 12.5056C20.5 13.0579 20.0523 13.5056 19.5 13.5056H13.5V19.5056C13.5 20.0579 13.0523 20.5056 12.5 20.5056C11.9477 20.5056 11.5 20.0579 11.5 19.5056V13.5056H5.5C4.94771 13.5056 4.5 13.0579 4.5 12.5056C4.5 11.9533 4.94771 11.5056 5.5 11.5056H11.5V5.50562Z" fill="#1E202C"/>
</svg>
