<svg width="36" height="36" viewBox="0 0 36 36" fill="none" xmlns="http://www.w3.org/2000/svg">
<path d="M12.7564 15.8456L18 10.602L23.2461 15.8479L26.2971 12.7969L18 4.5L9.7056 12.7944L12.7565 15.8454L12.7564 15.8456ZM4.5 18L7.55111 14.9485L10.602 17.9994L7.55089 21.0505L4.5 18ZM12.7564 20.1547L18 25.398L23.246 20.1522L26.2986 23.2016L26.2971 23.2032L18 31.5L9.7056 23.2056L9.70128 23.2013L12.7567 20.1544L12.7564 20.1547ZM25.398 18.0013L28.4491 14.9502L31.5 18.0011L28.449 21.0522L25.398 18.0013Z" fill="#F3BA2F"/>
<path d="M20.9971 17.9984H20.9983L18.0001 15L15.7839 17.2155L15.5293 17.4702L15.0042 17.9954L15 17.9995L15.0042 18.0038L18.0001 21L20.9985 18.0016L21 17.9999L20.9973 17.9984" fill="#F3BA2F"/>
</svg>
