<svg width="18" height="18" viewBox="0 0 18 18" fill="none" xmlns="http://www.w3.org/2000/svg">
<path d="M10.125 3.09375H3.375C2.90901 3.09375 2.53125 3.47151 2.53125 3.9375V10.6875C2.53125 11.1535 2.90901 11.5312 3.375 11.5312H4.5V12.9375H3.375C2.13236 12.9375 1.125 11.9301 1.125 10.6875V3.9375C1.125 2.69486 2.13236 1.6875 3.375 1.6875H10.125C11.3676 1.6875 12.375 2.69486 12.375 3.9375V4.5H10.9688V3.9375C10.9688 3.47151 10.591 3.09375 10.125 3.09375Z" fill="currentColor"/>
<path fill-rule="evenodd" clip-rule="evenodd" d="M5.625 7.875C5.625 6.63236 6.63236 5.625 7.875 5.625H14.625C15.8676 5.625 16.875 6.63236 16.875 7.875V14.625C16.875 15.8676 15.8676 16.875 14.625 16.875H7.875C6.63236 16.875 5.625 15.8676 5.625 14.625V7.875ZM7.875 7.03125H14.625C15.091 7.03125 15.4688 7.40901 15.4688 7.875V14.625C15.4688 15.091 15.091 15.4688 14.625 15.4688H7.875C7.40901 15.4688 7.03125 15.091 7.03125 14.625V7.875C7.03125 7.40901 7.40901 7.03125 7.875 7.03125Z" fill="currentColor"/>
</svg>
