<svg width="32" height="32" viewBox="0 0 32 32" fill="none" xmlns="http://www.w3.org/2000/svg">
<path d="M21.6567 23.5425C22.1774 24.0632 23.0217 24.0632 23.5424 23.5425C24.0631 23.0218 24.0631 22.1776 23.5424 21.6569L17.8855 16L23.5424 10.3432C24.0631 9.82249 24.0631 8.97827 23.5424 8.45757C23.0217 7.93687 22.1774 7.93687 21.6567 8.45757L15.9999 14.1144L10.343 8.45754C9.82234 7.93684 8.97812 7.93684 8.45742 8.45754C7.93672 8.97824 7.93672 9.82246 8.45742 10.3432L14.1143 16L8.45742 21.6569C7.93672 22.1776 7.93672 23.0218 8.45742 23.5425C8.97812 24.0632 9.82234 24.0632 10.343 23.5425L15.9999 17.8856L21.6567 23.5425Z" fill="currentColor"/>
</svg>
