<svg width="25" height="25" viewBox="0 0 25 25" fill="none" xmlns="http://www.w3.org/2000/svg">
<path d="M12.8857 1.50293C7.08574 1.50293 2.38574 6.20293 2.38574 12.0029C2.38574 17.8029 7.08574 22.5029 12.8857 22.5029C18.6857 22.5029 23.3857 17.8029 23.3857 12.0029C23.3857 6.20293 18.6857 1.50293 12.8857 1.50293ZM9.93274 5.90293C9.05474 6.38693 8.71274 6.47693 8.44674 6.76093C8.18374 7.04493 7.78374 8.35793 7.60674 8.47293C7.42974 8.58793 6.14474 8.62693 6.14474 8.62693C6.14474 8.62693 8.29274 10.3009 8.99774 10.4589C9.70374 10.6169 11.4277 10.2489 11.7677 10.3169C12.1097 10.3869 13.8837 11.9869 14.0917 12.3909C14.2997 12.7949 14.2577 14.1389 14.0537 14.3349C13.8497 14.5309 12.8707 15.4249 12.6607 15.7249C12.4507 16.0249 10.7667 19.8029 10.5667 19.8049C10.3667 19.8049 9.94674 19.2409 9.83674 18.9569C9.72674 18.6729 9.40974 14.9449 9.24674 14.6939C9.08374 14.4439 8.12074 13.8739 7.97074 13.6679C7.82074 13.4609 7.41874 12.2809 7.44374 12.0509C7.46774 11.8209 7.93574 11.0439 7.81774 10.8369C7.70074 10.6299 5.61074 9.80393 5.20774 9.65693C4.80474 9.51193 4.22474 9.32493 4.22474 9.32493C5.35474 5.67293 8.73974 3.00693 12.7447 2.94493C12.7447 2.94493 12.8697 2.92693 12.9307 3.08493C13.0407 3.37093 13.1867 4.16293 13.0227 4.42993C12.8797 4.65993 10.8127 5.41993 9.93474 5.90393L9.93274 5.90293ZM21.0767 14.1429C20.8667 13.7599 19.8547 11.7929 19.4837 11.4589C19.2537 11.2509 17.2837 10.5469 16.9337 10.3689C16.5817 10.1919 15.6757 9.37193 15.6667 9.15593C15.6567 8.93993 16.7817 7.95193 16.8167 7.63193C16.8727 7.14193 14.9347 5.79693 14.9197 5.57793C14.9047 5.35793 15.0667 4.91793 15.2297 4.76793C15.6327 4.40793 18.4197 4.80793 18.7857 5.12793C20.7857 6.88493 21.9537 9.25393 21.9537 12.0009C21.9537 12.7769 21.7737 13.9129 21.6717 14.1809C21.5917 14.3909 21.2287 14.4129 21.0767 14.1409V14.1429Z" fill="currentColor"/>
</svg>
