<svg width="96" height="97" viewBox="0 0 96 97" fill="none" xmlns="http://www.w3.org/2000/svg">
<g clip-path="url(#clip0_3723:14951)">
<path d="M94 77.5C94 85.7843 73.8528 92.5 49 92.5C24.1472 92.5 4 85.7843 4 77.5C4 73.1466 9.56368 69.2264 18.4502 66.4863C18.4502 66.7813 18.4502 67.0938 18.4502 67.0938L47.9062 79L77.3504 67.0782C77.3504 67.0782 77.3504 66.4688 77.3504 65.8506C87.5088 68.6008 94 72.7978 94 77.5Z" fill="url(#paint0_linear_3723:14951)"/>
<path d="M77.3598 37.1406L47.8939 49.1482L47.8936 27.1475L77.3598 37.1406Z" fill="#699EFF"/>
<path d="M47.895 27.1475V49.0779L18.4287 37.1398L47.895 27.1475Z" fill="#82AEFF"/>
<g filter="url(#filter0_b_3723:14951)">
<path d="M18.4287 67.1148L47.8943 79.0465V49.0719L18.4287 37.1416V67.1148Z" fill="#7DABFF" fill-opacity="0.5"/>
</g>
<g filter="url(#filter1_b_3723:14951)">
<path d="M47.8953 49.0717V79.0456L77.3608 67.1145V37.1406L47.8953 49.0717Z" fill="#7AA9FF" fill-opacity="0.32"/>
</g>
<g filter="url(#filter2_b_3723:14951)">
<path d="M0 44.4509L29.4656 56.4447L47.8956 49.1352L18.4285 37.1414L0 44.4509ZM47.8956 49.1352L66.3249 56.4447L95.7904 44.4509L77.3611 37.1406L47.8956 49.1352Z" fill="#6CA0FF" fill-opacity="0.2"/>
</g>
<g filter="url(#filter3_b_3723:14951)">
<path fill-rule="evenodd" clip-rule="evenodd" d="M33.8637 22.1239C31.7298 22.6957 30.4635 24.889 31.0353 27.0229L32.5882 32.8184C33.16 34.9523 35.3536 36.2185 37.4875 35.6468L41.3509 34.6116L42.489 35.2687C42.5368 35.2963 42.598 35.2799 42.6256 35.2321L43.2827 34.0939L43.5695 34.0171L44.4298 33.7866L47.1464 33.0587C49.2803 32.4869 50.5466 30.2936 49.9749 28.1597L48.4219 22.3641C47.8502 20.2303 45.6568 18.9639 43.523 19.5357L33.8637 22.1239ZM36.9002 29.5925C37.4336 29.4496 37.7502 28.9012 37.6073 28.3677C37.4643 27.8343 36.916 27.5177 36.3825 27.6606C35.8491 27.8036 35.5325 28.3519 35.6754 28.8854C35.8184 29.4189 36.3667 29.7354 36.9002 29.5925ZM41.471 27.3325C41.6139 27.8659 41.2973 28.4143 40.7639 28.5572C40.2304 28.7002 39.6821 28.3836 39.5391 27.8501C39.3962 27.3166 39.7128 26.7683 40.2462 26.6254C40.7797 26.4824 41.328 26.799 41.471 27.3325ZM44.6276 27.5219C45.1611 27.379 45.4776 26.8307 45.3347 26.2972C45.1918 25.7637 44.6434 25.4471 44.11 25.5901C43.5765 25.733 43.2599 26.2814 43.4028 26.8148C43.5458 27.3483 44.0941 27.6649 44.6276 27.5219Z" fill="#1C68F3" fill-opacity="0.2"/>
</g>
</g>
<defs>
<filter id="filter0_b_3723:14951" x="14.4287" y="33.1416" width="37.4656" height="49.9053" filterUnits="userSpaceOnUse" color-interpolation-filters="sRGB">
<feFlood flood-opacity="0" result="BackgroundImageFix"/>
<feGaussianBlur in="BackgroundImage" stdDeviation="2"/>
<feComposite in2="SourceAlpha" operator="in" result="effect1_backgroundBlur_3723:14951"/>
<feBlend mode="normal" in="SourceGraphic" in2="effect1_backgroundBlur_3723:14951" result="shape"/>
</filter>
<filter id="filter1_b_3723:14951" x="43.8953" y="33.1406" width="37.4656" height="49.9053" filterUnits="userSpaceOnUse" color-interpolation-filters="sRGB">
<feFlood flood-opacity="0" result="BackgroundImageFix"/>
<feGaussianBlur in="BackgroundImage" stdDeviation="2"/>
<feComposite in2="SourceAlpha" operator="in" result="effect1_backgroundBlur_3723:14951"/>
<feBlend mode="normal" in="SourceGraphic" in2="effect1_backgroundBlur_3723:14951" result="shape"/>
</filter>
<filter id="filter2_b_3723:14951" x="-4" y="33.1406" width="103.791" height="27.3037" filterUnits="userSpaceOnUse" color-interpolation-filters="sRGB">
<feFlood flood-opacity="0" result="BackgroundImageFix"/>
<feGaussianBlur in="BackgroundImage" stdDeviation="2"/>
<feComposite in2="SourceAlpha" operator="in" result="effect1_backgroundBlur_3723:14951"/>
<feBlend mode="normal" in="SourceGraphic" in2="effect1_backgroundBlur_3723:14951" result="shape"/>
</filter>
<filter id="filter3_b_3723:14951" x="26.8979" y="15.3984" width="27.2141" height="24.3857" filterUnits="userSpaceOnUse" color-interpolation-filters="sRGB">
<feFlood flood-opacity="0" result="BackgroundImageFix"/>
<feGaussianBlur in="BackgroundImage" stdDeviation="2"/>
<feComposite in2="SourceAlpha" operator="in" result="effect1_backgroundBlur_3723:14951"/>
<feBlend mode="normal" in="SourceGraphic" in2="effect1_backgroundBlur_3723:14951" result="shape"/>
</filter>
<linearGradient id="paint0_linear_3723:14951" x1="49" y1="62.5" x2="49" y2="80.6579" gradientUnits="userSpaceOnUse">
<stop stop-color="#3E7DEF" stop-opacity="0.29"/>
<stop offset="1" stop-color="#8DB3F9" stop-opacity="0"/>
</linearGradient>
<clipPath id="clip0_3723:14951">
<rect width="96" height="96" fill="white" transform="translate(0 0.5)"/>
</clipPath>
</defs>
</svg>
