<svg width="18" height="18" viewBox="0 0 18 18" fill="none" xmlns="http://www.w3.org/2000/svg">
<path d="M7.5 4.5V6H3.75V14.25H12V10.5H13.5V15C13.5 15.1989 13.421 15.3897 13.2803 15.5303C13.1397 15.671 12.9489 15.75 12.75 15.75H3C2.80109 15.75 2.61032 15.671 2.46967 15.5303C2.32902 15.3897 2.25 15.1989 2.25 15V5.25C2.25 5.05109 2.32902 4.86032 2.46967 4.71967C2.61032 4.57902 2.80109 4.5 3 4.5H7.5ZM15 3V9H13.5V5.55975L8.40525 10.6552L7.34475 9.59475L12.4387 4.5H9V3H15Z" fill="currentColor"/>
</svg>
