<svg width="20" height="20" viewBox="0 0 20 20" fill="none" xmlns="http://www.w3.org/2000/svg">
<path d="M10.8332 10.5796C10.8497 10.5685 10.8735 10.5553 10.9077 10.5395C11.0247 10.4854 11.1333 10.4556 11.297 10.4109C11.3897 10.3855 11.5002 10.3552 11.6399 10.313C11.9527 10.2184 12.4042 10.0589 12.7637 9.6876C13.1523 9.28623 13.3332 8.74872 13.3332 8.10193L13.3332 8.09365C13.3333 7.90053 13.3337 7.145 12.904 6.42088C12.4236 5.61127 11.5073 5.00008 9.99982 5.00008C9.24462 5.00008 8.62236 5.17288 8.12318 5.47485C7.62552 5.7759 7.29634 6.17736 7.08246 6.5655C6.87119 6.94892 6.76943 7.3238 6.71927 7.59693C6.69386 7.73527 6.68075 7.85264 6.67394 7.93906C6.67053 7.98242 6.66867 8.01842 6.66766 8.04586C6.66716 8.0596 6.66687 8.07123 6.6667 8.08062L6.66653 8.093L6.6665 8.0979L6.66649 8.10003L6.66649 8.10101L6.6665 8.10193C6.6665 8.56217 7.03959 8.93527 7.49983 8.93527C7.95754 8.93527 8.32906 8.56626 8.33312 8.10951L8.33314 8.10758C8.33335 8.10179 8.334 8.08852 8.33547 8.06985C8.33843 8.03222 8.34486 7.97236 8.35851 7.89802C8.38647 7.74581 8.44096 7.55355 8.54219 7.36984C8.64081 7.19086 8.78038 7.02518 8.98585 6.90089C9.18979 6.77752 9.50503 6.66675 9.99982 6.66675C10.9923 6.66675 11.3261 7.02778 11.4707 7.27141C11.6595 7.58971 11.6665 7.95668 11.6665 8.10193C11.6665 8.4249 11.5857 8.50827 11.5667 8.52786C11.5194 8.5767 11.4199 8.63827 11.1573 8.71771C11.1144 8.73068 11.0588 8.74598 10.9947 8.76362C10.7757 8.82386 10.4575 8.91143 10.208 9.02683C9.81766 9.20738 9.40174 9.52471 9.20861 10.1089C9.18071 10.1933 9.16649 10.2816 9.16649 10.3705L9.1665 11.0415C9.1665 11.5017 9.5396 11.8751 9.99984 11.8751C10.4601 11.8751 10.8332 11.502 10.8332 11.0417L10.8332 10.5796Z" fill="currentColor"/>
<path d="M9.99984 15.0001C10.4601 15.0001 10.8332 14.627 10.8332 14.1667C10.8332 13.7065 10.4601 13.3334 9.99984 13.3334C9.5396 13.3334 9.1665 13.7065 9.1665 14.1667C9.1665 14.627 9.5396 15.0001 9.99984 15.0001Z" fill="currentColor"/>
<path fill-rule="evenodd" clip-rule="evenodd" d="M9.99984 18.3334C14.6022 18.3334 18.3332 14.6025 18.3332 10.0001C18.3332 5.39771 14.6022 1.66675 9.99984 1.66675C5.39746 1.66675 1.6665 5.39771 1.6665 10.0001C1.6665 14.6025 5.39746 18.3334 9.99984 18.3334ZM9.99984 16.6667C13.6817 16.6667 16.6665 13.682 16.6665 10.0001C16.6665 6.31818 13.6817 3.33341 9.99984 3.33341C6.31794 3.33341 3.33317 6.31818 3.33317 10.0001C3.33317 13.682 6.31794 16.6667 9.99984 16.6667Z" fill="currentColor"/>
</svg>
