<svg width="18" height="18" viewBox="0 0 18 18" fill="none" xmlns="http://www.w3.org/2000/svg">
<path d="M1.5 7.5C1.5 6.25736 2.50736 5.25 3.75 5.25H7.5C7.91421 5.25 8.25 5.58579 8.25 6C8.25 6.41421 7.91421 6.75 7.5 6.75H3.75C3.33579 6.75 3 7.08579 3 7.5V10.5C3 10.9142 3.33579 11.25 3.75 11.25H7.5C7.91421 11.25 8.25 11.5858 8.25 12C8.25 12.4142 7.91421 12.75 7.5 12.75H3.75C2.50736 12.75 1.5 11.7426 1.5 10.5V7.5Z" fill="currentColor"/>
<path d="M9.75 6C9.75 5.58579 10.0858 5.25 10.5 5.25H14.25C15.4926 5.25 16.5 6.25736 16.5 7.5V10.5C16.5 11.7426 15.4926 12.75 14.25 12.75H10.5C10.0858 12.75 9.75 12.4142 9.75 12C9.75 11.5858 10.0858 11.25 10.5 11.25H14.25C14.6642 11.25 15 10.9142 15 10.5V7.5C15 7.08579 14.6642 6.75 14.25 6.75H10.5C10.0858 6.75 9.75 6.41421 9.75 6Z" fill="currentColor"/>
<path d="M5.625 8.25C5.21079 8.25 4.875 8.58579 4.875 9C4.875 9.41421 5.21079 9.75 5.625 9.75H12.375C12.7892 9.75 13.125 9.41421 13.125 9C13.125 8.58579 12.7892 8.25 12.375 8.25H5.625Z" fill="currentColor"/>
</svg>
