<svg width="16" height="16" viewBox="0 0 16 16" fill="none" xmlns="http://www.w3.org/2000/svg">
<g clip-path="url(#clip0_4307_30570)">
<path fill-rule="evenodd" clip-rule="evenodd" d="M8 0.842105C4.0468 0.842105 0.842105 4.0468 0.842105 8C0.842105 11.9532 4.0468 15.1579 8 15.1579C11.9532 15.1579 15.1579 11.9532 15.1579 8C15.1579 4.0468 11.9532 0.842105 8 0.842105ZM0 8C0 3.58172 3.58172 0 8 0C12.4183 0 16 3.58172 16 8C16 12.4183 12.4183 16 8 16C3.58172 16 0 12.4183 0 8Z" fill="#EFF3F4"/>
<path fill-rule="evenodd" clip-rule="evenodd" d="M7.57895 0.421053C7.57895 0.188512 7.76746 0 8 0C12.4183 0 16 3.58172 16 8C16 12.4183 12.4183 16 8 16C7.76746 16 7.57895 15.8115 7.57895 15.5789C7.57895 15.3464 7.76746 15.1579 8 15.1579C11.9532 15.1579 15.1579 11.9532 15.1579 8C15.1579 4.0468 11.9532 0.842105 8 0.842105C7.76746 0.842105 7.57895 0.653594 7.57895 0.421053Z" fill="#1D9BF0"/>
</g>
<defs>
<clipPath id="clip0_4307_30570">
<rect width="16" height="16" fill="white"/>
</clipPath>
</defs>
</svg>
