<svg width="24" height="25" viewBox="0 0 24 25" fill="none" xmlns="http://www.w3.org/2000/svg">
<path d="M12 2.5C12.2652 2.5 12.5196 2.60536 12.7071 2.79289C12.8946 2.98043 13 3.23478 13 3.5V6.5C13 6.76522 12.8946 7.01957 12.7071 7.20711C12.5196 7.39464 12.2652 7.5 12 7.5C11.7348 7.5 11.4804 7.39464 11.2929 7.20711C11.1054 7.01957 11 6.76522 11 6.5V3.5C11 3.23478 11.1054 2.98043 11.2929 2.79289C11.4804 2.60536 11.7348 2.5 12 2.5ZM12 17.5C12.2652 17.5 12.5196 17.6054 12.7071 17.7929C12.8946 17.9804 13 18.2348 13 18.5V21.5C13 21.7652 12.8946 22.0196 12.7071 22.2071C12.5196 22.3946 12.2652 22.5 12 22.5C11.7348 22.5 11.4804 22.3946 11.2929 22.2071C11.1054 22.0196 11 21.7652 11 21.5V18.5C11 18.2348 11.1054 17.9804 11.2929 17.7929C11.4804 17.6054 11.7348 17.5 12 17.5ZM22 12.5C22 12.7652 21.8946 13.0196 21.7071 13.2071C21.5196 13.3946 21.2652 13.5 21 13.5H18C17.7348 13.5 17.4804 13.3946 17.2929 13.2071C17.1054 13.0196 17 12.7652 17 12.5C17 12.2348 17.1054 11.9804 17.2929 11.7929C17.4804 11.6054 17.7348 11.5 18 11.5H21C21.2652 11.5 21.5196 11.6054 21.7071 11.7929C21.8946 11.9804 22 12.2348 22 12.5ZM7 12.5C7 12.7652 6.89464 13.0196 6.70711 13.2071C6.51957 13.3946 6.26522 13.5 6 13.5H3C2.73478 13.5 2.48043 13.3946 2.29289 13.2071C2.10536 13.0196 2 12.7652 2 12.5C2 12.2348 2.10536 11.9804 2.29289 11.7929C2.48043 11.6054 2.73478 11.5 3 11.5H6C6.26522 11.5 6.51957 11.6054 6.70711 11.7929C6.89464 11.9804 7 12.2348 7 12.5ZM19.071 19.571C18.8835 19.7585 18.6292 19.8638 18.364 19.8638C18.0988 19.8638 17.8445 19.7585 17.657 19.571L15.536 17.45C15.3538 17.2614 15.253 17.0088 15.2553 16.7466C15.2576 16.4844 15.3628 16.2336 15.5482 16.0482C15.7336 15.8628 15.9844 15.7576 16.2466 15.7553C16.5088 15.753 16.7614 15.8538 16.95 16.036L19.071 18.156C19.164 18.2489 19.2377 18.3592 19.2881 18.4806C19.3384 18.602 19.3643 18.7321 19.3643 18.8635C19.3643 18.9949 19.3384 19.125 19.2881 19.2464C19.2377 19.3678 19.164 19.4781 19.071 19.571ZM8.464 8.964C8.27647 9.15147 8.02216 9.25679 7.757 9.25679C7.49184 9.25679 7.23753 9.15147 7.05 8.964L4.93 6.844C4.74236 6.65649 4.63689 6.40212 4.6368 6.13685C4.6367 5.87158 4.74199 5.61714 4.9295 5.4295C5.11701 5.24186 5.37138 5.13639 5.63665 5.1363C5.90192 5.1362 6.15636 5.24149 6.344 5.429L8.464 7.55C8.65147 7.73753 8.75679 7.99184 8.75679 8.257C8.75679 8.52216 8.65147 8.77647 8.464 8.964ZM4.93 19.571C4.74253 19.3835 4.63721 19.1292 4.63721 18.864C4.63721 18.5988 4.74253 18.3445 4.93 18.157L7.051 16.036C7.14325 15.9405 7.25359 15.8643 7.3756 15.8119C7.4976 15.7595 7.62882 15.7319 7.7616 15.7307C7.89438 15.7296 8.02606 15.7549 8.14895 15.8052C8.27185 15.8555 8.3835 15.9297 8.4774 16.0236C8.57129 16.1175 8.64554 16.2291 8.69582 16.352C8.7461 16.4749 8.7714 16.6066 8.77025 16.7394C8.7691 16.8722 8.74151 17.0034 8.6891 17.1254C8.63669 17.2474 8.56051 17.3578 8.465 17.45L6.345 19.571C6.25213 19.664 6.14184 19.7377 6.02044 19.7881C5.89904 19.8384 5.76892 19.8643 5.6375 19.8643C5.50608 19.8643 5.37596 19.8384 5.25456 19.7881C5.13316 19.7377 5.02287 19.664 4.93 19.571ZM15.536 8.964C15.3485 8.77647 15.2432 8.52216 15.2432 8.257C15.2432 7.99184 15.3485 7.73753 15.536 7.55L17.656 5.429C17.8435 5.24136 18.0979 5.13589 18.3631 5.1358C18.6284 5.1357 18.8829 5.24099 19.0705 5.4285C19.2581 5.61601 19.3636 5.87038 19.3637 6.13565C19.3638 6.40092 19.2585 6.65536 19.071 6.843L16.95 8.964C16.7625 9.15147 16.5082 9.25679 16.243 9.25679C15.9778 9.25679 15.7235 9.15147 15.536 8.964Z" fill="#454A5F"/>
</svg>
