<svg width="48" height="48" viewBox="0 0 48 48" fill="none" xmlns="http://www.w3.org/2000/svg">
<path d="M24 48C37.2548 48 48 37.2548 48 24C48 10.7452 37.2548 0 24 0C10.7452 0 0 10.7452 0 24C0 37.2548 10.7452 48 24 48Z" fill="#0057FF"/>
<path fill-rule="evenodd" clip-rule="evenodd" d="M38.486 18.1001V26.0702H14.1923L13.147 26.0703C14.2533 30.9063 18.6437 34.5186 23.8913 34.5186C28.2297 34.5186 31.9822 32.0496 33.7775 28.4614L38.486 28.4614V35.1562C38.486 36.7408 37.1808 38.0254 35.5708 38.0254H12.2488C10.6387 38.0254 9.3335 36.7408 9.3335 35.1562V18.1001H38.486ZM30.9814 28.4614C29.4354 30.6861 26.8366 32.146 23.8913 32.146C20.9461 32.146 18.3473 30.6861 16.8013 28.4614H30.9814ZM17.6744 20.013C15.3898 20.013 13.4998 21.6757 13.1854 23.8386L15.6704 23.8387C15.9437 23.0061 16.7376 22.404 17.6744 22.404C18.6112 22.404 19.4051 23.0061 19.6783 23.8387L22.1633 23.8386C21.8489 21.6757 19.9589 20.013 17.6744 20.013ZM30.1452 20.013C27.8606 20.013 25.9706 21.6757 25.6563 23.8386L28.1412 23.8387C28.4145 23.0061 29.2084 22.404 30.1452 22.404C31.082 22.404 31.8759 23.0061 32.1491 23.8387L34.6341 23.8386C34.3198 21.6757 32.4298 20.013 30.1452 20.013ZM35.5708 9.33301C37.1808 9.33301 38.486 10.6176 38.486 12.2022V15.7091H9.3335V12.2022C9.3335 10.6176 10.6387 9.33301 12.2488 9.33301H35.5708Z" fill="white"/>
</svg>
