<svg width="20" height="21" viewBox="0 0 20 21" fill="none" xmlns="http://www.w3.org/2000/svg">
<path fill-rule="evenodd" clip-rule="evenodd" d="M17.5 10.0029C17.0348 10.2355 16.4926 10.4489 15.9069 10.6096C14.132 11.0967 11.9572 11.1002 10.3125 9.69043C8.61663 8.23682 8.79895 6.03194 9.40338 4.09503C9.57861 3.53353 9.7893 2.99456 10 2.50293C9.39005 2.50293 8.7971 2.57574 8.22938 2.71315C4.94175 3.50886 2.5 6.47074 2.5 10.0029C2.5 14.1451 5.85786 17.5029 10 17.5029C13.5221 17.5029 16.4771 15.0751 17.2829 11.8017C17.4248 11.2255 17.5 10.623 17.5 10.0029ZM15.4722 12.311C14.5715 14.4437 12.4606 15.9404 10 15.9404C6.72081 15.9404 4.0625 13.2821 4.0625 10.0029C4.0625 7.55381 5.54534 5.45102 7.66219 4.54338C7.54329 5.05515 7.45711 5.58519 7.42474 6.11934C7.32703 7.73156 7.72053 9.52667 9.29564 10.8768C10.7577 12.13 12.5003 12.5107 14.0708 12.4632C14.5486 12.4487 15.0185 12.3948 15.4722 12.311Z" fill="#1E202C"/>
</svg>
