<svg width="18" height="18" viewBox="0 0 18 18" fill="none" xmlns="http://www.w3.org/2000/svg">
<path fill-rule="evenodd" clip-rule="evenodd" d="M4.5 6C5.74264 6 6.75 4.99264 6.75 3.75C6.75 2.50736 5.74264 1.5 4.5 1.5C3.25736 1.5 2.25 2.50736 2.25 3.75C2.25 4.99264 3.25736 6 4.5 6ZM4.5 4.5C4.91421 4.5 5.25 4.16421 5.25 3.75C5.25 3.33579 4.91421 3 4.5 3C4.08579 3 3.75 3.33579 3.75 3.75C3.75 4.16421 4.08579 4.5 4.5 4.5Z" fill="currentColor"/>
<path fill-rule="evenodd" clip-rule="evenodd" d="M11.378 9.75C11.6869 10.6239 12.5203 11.25 13.5 11.25C14.7426 11.25 15.75 10.2426 15.75 9C15.75 7.75736 14.7426 6.75 13.5 6.75C12.5203 6.75 11.6869 7.37611 11.378 8.25H3C2.58579 8.25 2.25 8.58579 2.25 9C2.25 9.41421 2.58579 9.75 3 9.75H11.378ZM13.5 9.75C13.9142 9.75 14.25 9.41421 14.25 9C14.25 8.58579 13.9142 8.25 13.5 8.25C13.0858 8.25 12.75 8.58579 12.75 9C12.75 9.41421 13.0858 9.75 13.5 9.75Z" fill="currentColor"/>
<path fill-rule="evenodd" clip-rule="evenodd" d="M8.25 16.5C7.27034 16.5 6.43691 15.8739 6.12803 15H3C2.58579 15 2.25 14.6642 2.25 14.25C2.25 13.8358 2.58579 13.5 3 13.5H6.12803C6.43691 12.6261 7.27034 12 8.25 12C9.49264 12 10.5 13.0074 10.5 14.25C10.5 15.4926 9.49264 16.5 8.25 16.5ZM9 14.25C9 14.6642 8.66421 15 8.25 15C7.83579 15 7.5 14.6642 7.5 14.25C7.5 13.8358 7.83579 13.5 8.25 13.5C8.66421 13.5 9 13.8358 9 14.25Z" fill="currentColor"/>
<path d="M8.25 3.75C8.25 3.33579 8.58579 3 9 3L15 3C15.4142 3 15.75 3.33579 15.75 3.75C15.75 4.16421 15.4142 4.5 15 4.5L9 4.5C8.58579 4.5 8.25 4.16421 8.25 3.75Z" fill="currentColor"/>
<path d="M12.75 13.5C12.3358 13.5 12 13.8358 12 14.25C12 14.6642 12.3358 15 12.75 15H15C15.4142 15 15.75 14.6642 15.75 14.25C15.75 13.8358 15.4142 13.5 15 13.5H12.75Z" fill="currentColor"/>
</svg>
