<svg width="24" height="25" viewBox="0 0 24 25" fill="none" xmlns="http://www.w3.org/2000/svg">
<path d="M19.995 6.6936C20.8914 6.15769 21.5622 5.31384 21.882 4.3196C21.0397 4.81941 20.118 5.17148 19.157 5.3606C17.8246 3.95113 15.7135 3.60813 14.0034 4.52326C12.2933 5.43839 11.4075 7.38509 11.841 9.2756C8.39062 9.10238 5.17598 7.47252 2.99702 4.7916C1.85986 6.75302 2.44097 9.26039 4.32502 10.5216C3.64373 10.4997 2.97754 10.3152 2.38202 9.9836C2.38202 10.0016 2.38202 10.0196 2.38202 10.0376C2.38241 12.0808 3.82239 13.8407 5.82502 14.2456C5.19308 14.4175 4.53022 14.4428 3.88702 14.3196C4.45022 16.0669 6.06057 17.2639 7.89602 17.2996C6.37585 18.4927 4.49849 19.1398 2.56602 19.1366C2.22349 19.1371 1.88123 19.1174 1.54102 19.0776C3.50341 20.3386 5.78738 21.008 8.12002 21.0056C11.3653 21.0279 14.484 19.7485 16.7787 17.4536C19.0734 15.1587 20.3526 12.0399 20.33 8.7946C20.33 8.6086 20.3257 8.4236 20.317 8.2396C21.1575 7.63221 21.8828 6.87975 22.459 6.0176C21.676 6.36467 20.8455 6.59253 19.995 6.6936Z" fill="currentColor"/>
</svg>
