<svg width="24" height="25" viewBox="0 0 24 25" fill="none" xmlns="http://www.w3.org/2000/svg">
<path d="M5.6454 13.9691L5.47138 13.9442C4.28654 13.7747 3.375 12.7525 3.375 11.5206C3.375 10.1683 4.47124 9.07204 5.82353 9.07204C5.87254 9.07204 5.92101 9.07345 5.96891 9.07622L7.47348 9.16327L7.88201 7.71262C8.4645 5.64425 10.3668 4.13086 12.6176 4.13086C15.3344 4.13086 17.5368 6.33322 17.5368 9.04998C17.5368 9.20195 17.5299 9.35184 17.5166 9.49943L17.3316 11.552L19.4118 11.5426L19.4151 11.5426C20.0836 11.5444 20.625 12.0869 20.625 12.7559C20.625 13.4259 20.0818 13.9691 19.4118 13.9691H15.75V15.8441H19.4118C21.1174 15.8441 22.5 14.4614 22.5 12.7559C22.5 11.2503 21.4227 9.99644 19.9969 9.72299C19.8075 9.68665 19.6118 9.66762 19.4118 9.66762L19.3841 9.66775C19.3975 9.51896 19.4061 9.36878 19.4097 9.21738C19.4111 9.16174 19.4118 9.10594 19.4118 9.04998C19.4118 8.97315 19.4105 8.89663 19.408 8.82042C19.4029 8.6692 19.393 8.51924 19.3782 8.37068C19.0374 4.93734 16.1407 2.25586 12.6176 2.25586C9.50507 2.25586 6.88135 4.34893 6.07721 7.20435C5.99327 7.1995 5.90869 7.19704 5.82353 7.19704C3.43571 7.19704 1.5 9.13275 1.5 11.5206C1.5 13.6987 3.11064 15.5006 5.20588 15.8003V15.8441H8.25V13.9691H5.6454Z" fill="currentColor"/>
<path d="M8.45713 10.0487C8.0666 10.4393 8.0666 11.0724 8.45712 11.4629C8.84765 11.8535 9.48081 11.8535 9.87134 11.4629L11.1642 10.1701V20.2558C11.1642 20.8081 11.6119 21.2558 12.1642 21.2558C12.7165 21.2558 13.1642 20.8081 13.1642 20.2558L13.1642 10.1701L14.4571 11.463C14.8476 11.8535 15.4808 11.8535 15.8713 11.463C16.2619 11.0724 16.2619 10.4393 15.8713 10.0487L12.8713 7.04874C12.6768 6.85424 12.4222 6.75661 12.1672 6.75585L12.1642 6.75584L12.1612 6.75585C12.0267 6.75624 11.8985 6.78319 11.7814 6.83172C11.6635 6.88052 11.553 6.95286 11.4571 7.04874L8.45713 10.0487Z" fill="currentColor"/>
</svg>
