  <svg width="24" height="25" fill="none" xmlns="http://www.w3.org/2000/svg">
  <path d="m17.53 7.476-5-5a.749.749 0 0 0-1.06 0l-5 5a.749.749 0 1 0 1.06 1.06l3.72-3.72v10.19a.75.75 0 0 0 1.5 0V4.816l3.72 3.72c.146.147.338.22.53.22a.749.749 0 0 0 .53-1.28Z" fill="#C1C7DE"/>
  <path d="M19.708 21.95H4.292A2.294 2.294 0 0 1 2 19.658v-5.652a.75.75 0 0 1 1.5 0v5.652c0 .437.355.792.792.792h15.416a.793.793 0 0 0 .792-.792v-5.652a.75.75 0 0 1 1.5 0v5.652a2.294 2.294 0 0 1-2.292 2.292Z" fill="#C1C7DE"/>
  </svg>
